<?xml version="1.0" encoding="UTF-8" standalone="no"?>
<svg
   xmlns:dc="http://purl.org/dc/elements/1.1/"
   xmlns:cc="http://creativecommons.org/ns#"
   xmlns:rdf="http://www.w3.org/1999/02/22-rdf-syntax-ns#"
   xmlns:svg="http://www.w3.org/2000/svg"
   xmlns="http://www.w3.org/2000/svg"
   xmlns:sodipodi="http://sodipodi.sourceforge.net/DTD/sodipodi-0.dtd"
   xmlns:inkscape="http://www.inkscape.org/namespaces/inkscape"
   version="1.1"
   id="svg2"
   xml:space="preserve"
   width="3728"
   height="3728"
   viewBox="0 0 3728 3728"
   sodipodi:docname="vecteezy_dong-icon-vietnamese-currency-symbol-vector-illustration_6060067.eps"><metadata
     id="metadata8"><rdf:RDF><cc:Work
         rdf:about=""><dc:format>image/svg+xml</dc:format><dc:type
           rdf:resource="http://purl.org/dc/dcmitype/StillImage" /></cc:Work></rdf:RDF></metadata><defs
     id="defs6" /><sodipodi:namedview
     pagecolor="#ffffff"
     bordercolor="#666666"
     borderopacity="1"
     objecttolerance="10"
     gridtolerance="10"
     guidetolerance="10"
     inkscape:pageopacity="0"
     inkscape:pageshadow="2"
     inkscape:window-width="640"
     inkscape:window-height="480"
     id="namedview4" /><g
     id="g10"
     inkscape:groupmode="layer"
     inkscape:label="ink_ext_XXXXXX"
     transform="matrix(1.3333333,0,0,-1.3333333,0,3728)"><g
       id="g12"
       transform="scale(0.1)"><path
         d="m 13980,23665.1 c -5348.89,0 -9685.05,-4336.2 -9685.05,-9685.1 0,-5348.9 4336.16,-9685.1 9685.05,-9685.1 5348.9,0 9685,4336.2 9685,9685.1 0,5348.9 -4336.1,9685.1 -9685,9685.1"
         style="fill:#ffab01;fill-opacity:1;fill-rule:nonzero;stroke:none"
         id="path16" /><path
         d="M 13980,3664.4 C 8291.92,3664.4 3664.41,8292 3664.41,13980 c 0,5688.1 4627.51,10315.6 10315.59,10315.6 5688,0 10315.6,-4627.5 10315.6,-10315.6 C 24295.6,8292 19668,3664.4 13980,3664.4 Z m 9971.4,14528.1 c -271.2,641.3 -607,1259.9 -997.8,1838.4 -387.1,573 -831.7,1111.8 -1321.3,1601.4 -489.7,489.6 -1028.5,934.2 -1601.5,1321.3 -578.5,390.9 -1197.1,726.6 -1838.3,997.8 -1334.4,564.5 -2751.7,850.6 -4212.5,850.6 -1460.9,0 -2878.2,-286.1 -4212.48,-850.6 -641.33,-271.2 -1259.88,-606.9 -1838.43,-997.8 -572.97,-387.1 -1111.77,-831.7 -1601.44,-1321.3 -489.67,-489.6 -934.19,-1028.4 -1321.32,-1601.4 -390.84,-578.5 -726.49,-1197.1 -997.75,-1838.4 -564.44,-1334.3 -850.55,-2751.6 -850.55,-4212.5 0,-1460.8 286.11,-2878.1 850.55,-4212.5 271.26,-641.2 606.91,-1259.8 997.75,-1838.3 387.13,-573 831.65,-1111.8 1321.32,-1601.5 489.67,-489.6 1028.47,-934.2 1601.44,-1321.3 578.55,-390.8 1197.1,-726.6 1838.43,-997.8 C 11101.8,3444.2 12519.1,3158 13980,3158 c 1460.8,0 2878.1,286.2 4212.5,850.6 641.2,271.2 1259.8,607 1838.3,997.8 573,387.1 1111.8,831.7 1601.5,1321.3 489.6,489.7 934.2,1028.5 1321.3,1601.5 390.8,578.5 726.6,1197.1 997.8,1838.3 564.4,1334.4 850.6,2751.7 850.6,4212.5 0,1460.9 -286.2,2878.2 -850.6,4212.5"
         style="fill:#ffab01;fill-opacity:1;fill-rule:nonzero;stroke:none"
         id="path18" /><path
         d="m 15498.6,11788.9 v 3724.5 c -601.1,635.5 -1288.3,953.3 -2061.8,953.3 -596.1,0 -1072.7,-257.5 -1429.8,-772.3 -357.3,-514.8 -535.8,-1282.1 -535.8,-2301.9 0,-965.6 168.7,-1698.5 506.2,-2198.4 337.3,-500.1 804.2,-750.1 1400.3,-750.1 778.4,0 1485.4,448.2 2120.9,1344.9 z m 1389.3,-4204.7 h -6296.1 v 968 h 6296.1 z m -1389.3,2889.4 c -620.7,-744 -1367.1,-1115.9 -2239.1,-1115.9 -1024.8,0 -1817.9,363.3 -2379.5,1090 -561.6,726.6 -842.4,1708.2 -842.4,2944.8 0,1285.8 314,2301.9 942.2,3048.3 628.1,746.4 1417.5,1119.6 2368.4,1119.6 847.2,0 1564.1,-263.6 2150.4,-790.7 v 1803 H 13895 v 968.1 h 1603.6 v 835 h 1389.3 v -835 h 1034.5 v -968.1 H 16887.9 V 9535 h -1389.3 v 938.6"
         style="fill:#f6f6f6;fill-opacity:1;fill-rule:nonzero;stroke:none"
         id="path20" /></g></g></svg>
